<?xml version="1.0" encoding="UTF-8"?>
<svg width="172px" height="40px" viewBox="0 0 172 40" version="1.1" xmlns="http://www.w3.org/2000/svg" xmlns:xlink="http://www.w3.org/1999/xlink">
    <title>logo_baseline copy</title>
    <g id="Symbols" stroke="none" stroke-width="1" fill="none" fill-rule="evenodd">
        <g id="Group-3" fill="#000000" transform="translate(8.000000, 8.000000)">
            <polygon id="Fill-1" points="12.0000398 0 0 24 12.0000398 18.9076629 24 24"></polygon>
            <g id="urgent.fm-|-105.3" transform="translate(32.929688, 5.835938)" fill-rule="nonzero">
                <path d="M5.1640625,11.3359375 C4.60677083,11.9921875 3.81510417,12.3203125 2.7890625,12.3203125 C1.87239583,12.3203125 1.17838542,12.0520833 0.70703125,11.515625 C0.235677083,10.9791667 0,10.203125 0,9.1875 L0,3.7109375 L1.8984375,3.7109375 L1.8984375,9.1640625 C1.8984375,10.2369792 2.34375,10.7734375 3.234375,10.7734375 C4.15625,10.7734375 4.77864583,10.4427083 5.1015625,9.78125 L5.1015625,3.7109375 L7,3.7109375 L7,12.1640625 L5.2109375,12.1640625 L5.1640625,11.3359375 Z" id="Path"></path>
                <path d="M13.359375,5.4453125 C13.109375,5.40364583 12.8515625,5.3828125 12.5859375,5.3828125 C11.7161458,5.3828125 11.1302083,5.71614583 10.828125,6.3828125 L10.828125,12.1640625 L8.9296875,12.1640625 L8.9296875,3.7109375 L10.7421875,3.7109375 L10.7890625,4.65625 C11.2473958,3.921875 11.8828125,3.5546875 12.6953125,3.5546875 C12.9661458,3.5546875 13.1901042,3.59114583 13.3671875,3.6640625 L13.359375,5.4453125 Z" id="Path"></path>
                <path d="M14.2265625,7.875 C14.2265625,6.5625 14.5351562,5.51432292 15.1523438,4.73046875 C15.7695312,3.94661458 16.5885417,3.5546875 17.609375,3.5546875 C18.5729167,3.5546875 19.3307292,3.890625 19.8828125,4.5625 L19.96875,3.7109375 L21.6796875,3.7109375 L21.6796875,11.90625 C21.6796875,13.015625 21.3346354,13.890625 20.6445312,14.53125 C19.9544271,15.171875 19.0234375,15.4921875 17.8515625,15.4921875 C17.2317708,15.4921875 16.6263021,15.3632812 16.0351562,15.1054688 C15.4440104,14.8476562 14.9947917,14.5104167 14.6875,14.09375 L15.5859375,12.953125 C16.1692708,13.6458333 16.8880208,13.9921875 17.7421875,13.9921875 C18.3723958,13.9921875 18.8697917,13.8216146 19.234375,13.4804688 C19.5989583,13.1393229 19.78125,12.6380208 19.78125,11.9765625 L19.78125,11.40625 C19.234375,12.015625 18.5052083,12.3203125 17.59375,12.3203125 C16.6041667,12.3203125 15.7955729,11.9270833 15.1679688,11.140625 C14.5403646,10.3541667 14.2265625,9.265625 14.2265625,7.875 Z M16.1171875,8.0390625 C16.1171875,8.88802083 16.2903646,9.55598958 16.6367188,10.0429688 C16.9830729,10.5299479 17.4635417,10.7734375 18.078125,10.7734375 C18.84375,10.7734375 19.4114583,10.4453125 19.78125,9.7890625 L19.78125,6.0703125 C19.421875,5.4296875 18.859375,5.109375 18.09375,5.109375 C17.46875,5.109375 16.9830729,5.35677083 16.6367188,5.8515625 C16.2903646,6.34635417 16.1171875,7.07552083 16.1171875,8.0390625 Z" id="Shape"></path>
                <path d="M27.3515625,12.3203125 C26.1484375,12.3203125 25.1731771,11.9414062 24.4257812,11.1835938 C23.6783854,10.4257812 23.3046875,9.41666667 23.3046875,8.15625 L23.3046875,7.921875 C23.3046875,7.078125 23.4674479,6.32421875 23.7929688,5.66015625 C24.1184896,4.99609375 24.5755208,4.47916667 25.1640625,4.109375 C25.7526042,3.73958333 26.4088542,3.5546875 27.1328125,3.5546875 C28.2838542,3.5546875 29.1731771,3.921875 29.8007812,4.65625 C30.4283854,5.390625 30.7421875,6.4296875 30.7421875,7.7734375 L30.7421875,8.5390625 L25.21875,8.5390625 C25.2760417,9.23697917 25.5091146,9.7890625 25.9179688,10.1953125 C26.3268229,10.6015625 26.8411458,10.8046875 27.4609375,10.8046875 C28.3307292,10.8046875 29.0390625,10.453125 29.5859375,9.75 L30.609375,10.7265625 C30.2708333,11.2317708 29.8190104,11.6236979 29.2539062,11.9023438 C28.6888021,12.1809896 28.0546875,12.3203125 27.3515625,12.3203125 Z M27.125,5.078125 C26.6041667,5.078125 26.1835938,5.26041667 25.8632812,5.625 C25.5429688,5.98958333 25.3385417,6.49739583 25.25,7.1484375 L28.8671875,7.1484375 L28.8671875,7.0078125 C28.8255208,6.37239583 28.65625,5.89192708 28.359375,5.56640625 C28.0625,5.24088542 27.6510417,5.078125 27.125,5.078125 Z" id="Shape"></path>
                <path d="M33.9765625,3.7109375 L34.03125,4.6875 C34.65625,3.93229167 35.4765625,3.5546875 36.4921875,3.5546875 C38.2526042,3.5546875 39.1484375,4.5625 39.1796875,6.578125 L39.1796875,12.1640625 L37.28125,12.1640625 L37.28125,6.6875 C37.28125,6.15104167 37.1653646,5.75390625 36.9335938,5.49609375 C36.7018229,5.23828125 36.3229167,5.109375 35.796875,5.109375 C35.03125,5.109375 34.4609375,5.45572917 34.0859375,6.1484375 L34.0859375,12.1640625 L32.1875,12.1640625 L32.1875,3.7109375 L33.9765625,3.7109375 Z" id="Path"></path>
                <path d="M43.4921875,1.65625 L43.4921875,3.7109375 L44.984375,3.7109375 L44.984375,5.1171875 L43.4921875,5.1171875 L43.4921875,9.8359375 C43.4921875,10.1588542 43.5559896,10.3919271 43.6835938,10.5351562 C43.8111979,10.6783854 44.0390625,10.75 44.3671875,10.75 C44.5859375,10.75 44.8072917,10.7239583 45.03125,10.671875 L45.03125,12.140625 C44.5989583,12.2604167 44.1822917,12.3203125 43.78125,12.3203125 C42.3229167,12.3203125 41.59375,11.515625 41.59375,9.90625 L41.59375,5.1171875 L40.203125,5.1171875 L40.203125,3.7109375 L41.59375,3.7109375 L41.59375,1.65625 L43.4921875,1.65625 Z" id="Path"></path>
                <path d="M47.6171875,10.1640625 C47.9713542,10.1640625 48.2447917,10.2643229 48.4375,10.4648438 C48.6302083,10.6653646 48.7265625,10.9166667 48.7265625,11.21875 C48.7265625,11.515625 48.6302083,11.7617188 48.4375,11.9570312 C48.2447917,12.1523438 47.9713542,12.25 47.6171875,12.25 C47.2786458,12.25 47.0104167,12.1536458 46.8125,11.9609375 C46.6145833,11.7682292 46.515625,11.5208333 46.515625,11.21875 C46.515625,10.9166667 46.6119792,10.6653646 46.8046875,10.4648438 C46.9973958,10.2643229 47.2682292,10.1640625 47.6171875,10.1640625 Z" id="Path"></path>
                <path d="M51.5703125,12.1640625 L51.5703125,5.1171875 L50.28125,5.1171875 L50.28125,3.7109375 L51.5703125,3.7109375 L51.5703125,2.9375 C51.5703125,2 51.8307292,1.27604167 52.3515625,0.765625 C52.8723958,0.255208333 53.6015625,0 54.5390625,0 C54.8723958,0 55.2265625,0.046875 55.6015625,0.140625 L55.5546875,1.625 C55.3463542,1.58333333 55.1041667,1.5625 54.828125,1.5625 C53.921875,1.5625 53.46875,2.02864583 53.46875,2.9609375 L53.46875,3.7109375 L55.1875,3.7109375 L55.1875,5.1171875 L53.46875,5.1171875 L53.46875,12.1640625 L51.5703125,12.1640625 Z" id="Path"></path>
                <path d="M58.359375,3.7109375 L58.4140625,4.59375 C59.0078125,3.90104167 59.8203125,3.5546875 60.8515625,3.5546875 C61.9817708,3.5546875 62.7552083,3.98697917 63.171875,4.8515625 C63.7864583,3.98697917 64.6510417,3.5546875 65.765625,3.5546875 C66.6979167,3.5546875 67.3919271,3.8125 67.8476562,4.328125 C68.3033854,4.84375 68.5364583,5.60416667 68.546875,6.609375 L68.546875,12.1640625 L66.6484375,12.1640625 L66.6484375,6.6640625 C66.6484375,6.12760417 66.53125,5.734375 66.296875,5.484375 C66.0625,5.234375 65.6744792,5.109375 65.1328125,5.109375 C64.7005208,5.109375 64.3476562,5.22526042 64.0742188,5.45703125 C63.8007812,5.68880208 63.609375,5.9921875 63.5,6.3671875 L63.5078125,12.1640625 L61.609375,12.1640625 L61.609375,6.6015625 C61.5833333,5.60677083 61.0755208,5.109375 60.0859375,5.109375 C59.3255208,5.109375 58.7864583,5.41927083 58.46875,6.0390625 L58.46875,12.1640625 L56.5703125,12.1640625 L56.5703125,3.7109375 L58.359375,3.7109375 Z" id="Path"></path>
                <polygon id="Path" points="76.171875 14.2734375 74.8671875 14.2734375 74.8671875 0.7890625 76.171875 0.7890625"></polygon>
                <polygon id="Path" points="87.5 12.1640625 85.609375 12.1640625 85.609375 3.03125 82.8203125 3.984375 82.8203125 2.3828125 87.2578125 0.75 87.5 0.75"></polygon>
                <path d="M98.8671875,7.375 C98.8671875,9.01041667 98.5611979,10.2434896 97.9492188,11.0742188 C97.3372396,11.9049479 96.40625,12.3203125 95.15625,12.3203125 C93.9270833,12.3203125 93.0013021,11.9153646 92.3789062,11.1054688 C91.7565104,10.2955729 91.4375,9.09635417 91.421875,7.5078125 L91.421875,5.5390625 C91.421875,3.90364583 91.7278646,2.67708333 92.3398438,1.859375 C92.9518229,1.04166667 93.8854167,0.6328125 95.140625,0.6328125 C96.3854167,0.6328125 97.3138021,1.03125 97.9257812,1.828125 C98.5377604,2.625 98.8515625,3.81770833 98.8671875,5.40625 L98.8671875,7.375 Z M96.96875,5.25 C96.96875,4.18229167 96.8229167,3.39973958 96.53125,2.90234375 C96.2395833,2.40494792 95.7760417,2.15625 95.140625,2.15625 C94.5208333,2.15625 94.0651042,2.39192708 93.7734375,2.86328125 C93.4817708,3.33463542 93.328125,4.0703125 93.3125,5.0703125 L93.3125,7.6484375 C93.3125,8.7109375 93.4609375,9.50260417 93.7578125,10.0234375 C94.0546875,10.5442708 94.5208333,10.8046875 95.15625,10.8046875 C95.765625,10.8046875 96.2161458,10.5638021 96.5078125,10.0820312 C96.7994792,9.60026042 96.953125,8.84635417 96.96875,7.8203125 L96.96875,5.25 Z" id="Shape"></path>
                <path d="M101.054688,6.5234375 L101.671875,0.7890625 L107.78125,0.7890625 L107.78125,2.4296875 L103.25,2.4296875 L102.9375,5.1484375 C103.463542,4.84635417 104.057292,4.6953125 104.71875,4.6953125 C105.802083,4.6953125 106.644531,5.04166667 107.246094,5.734375 C107.847656,6.42708333 108.148438,7.359375 108.148438,8.53125 C108.148438,9.6875 107.815104,10.6080729 107.148438,11.2929688 C106.481771,11.9778646 105.567708,12.3203125 104.40625,12.3203125 C103.364583,12.3203125 102.501302,12.0247396 101.816406,11.4335938 C101.13151,10.8424479 100.760417,10.0625 100.703125,9.09375 L102.539062,9.09375 C102.611979,9.64583333 102.809896,10.0690104 103.132812,10.3632812 C103.455729,10.6575521 103.877604,10.8046875 104.398438,10.8046875 C104.981771,10.8046875 105.436198,10.5963542 105.761719,10.1796875 C106.08724,9.76302083 106.25,9.1953125 106.25,8.4765625 C106.25,7.78385417 106.070312,7.23567708 105.710938,6.83203125 C105.351562,6.42838542 104.856771,6.2265625 104.226562,6.2265625 C103.882812,6.2265625 103.591146,6.27213542 103.351562,6.36328125 C103.111979,6.45442708 102.851562,6.6328125 102.570312,6.8984375 L101.054688,6.5234375 Z" id="Path"></path>
                <path d="M110.945312,10.1640625 C111.299479,10.1640625 111.572917,10.2643229 111.765625,10.4648438 C111.958333,10.6653646 112.054688,10.9166667 112.054688,11.21875 C112.054688,11.515625 111.958333,11.7617188 111.765625,11.9570312 C111.572917,12.1523438 111.299479,12.25 110.945312,12.25 C110.606771,12.25 110.338542,12.1536458 110.140625,11.9609375 C109.942708,11.7682292 109.84375,11.5208333 109.84375,11.21875 C109.84375,10.9166667 109.940104,10.6653646 110.132812,10.4648438 C110.325521,10.2643229 110.596354,10.1640625 110.945312,10.1640625 Z" id="Path"></path>
                <path d="M116.304688,5.609375 L117.460938,5.609375 C118.044271,5.60416667 118.50651,5.453125 118.847656,5.15625 C119.188802,4.859375 119.359375,4.4296875 119.359375,3.8671875 C119.359375,3.32552083 119.217448,2.90494792 118.933594,2.60546875 C118.64974,2.30598958 118.216146,2.15625 117.632812,2.15625 C117.122396,2.15625 116.703125,2.30338542 116.375,2.59765625 C116.046875,2.89192708 115.882812,3.27604167 115.882812,3.75 L113.984375,3.75 C113.984375,3.16666667 114.139323,2.63541667 114.449219,2.15625 C114.759115,1.67708333 115.191406,1.30338542 115.746094,1.03515625 C116.300781,0.766927083 116.921875,0.6328125 117.609375,0.6328125 C118.744792,0.6328125 119.636719,0.91796875 120.285156,1.48828125 C120.933594,2.05859375 121.257812,2.8515625 121.257812,3.8671875 C121.257812,4.37760417 121.095052,4.85807292 120.769531,5.30859375 C120.44401,5.75911458 120.023438,6.09895833 119.507812,6.328125 C120.132812,6.54166667 120.608073,6.87760417 120.933594,7.3359375 C121.259115,7.79427083 121.421875,8.34114583 121.421875,8.9765625 C121.421875,9.99739583 121.071615,10.8098958 120.371094,11.4140625 C119.670573,12.0182292 118.75,12.3203125 117.609375,12.3203125 C116.515625,12.3203125 115.619792,12.0286458 114.921875,11.4453125 C114.223958,10.8619792 113.875,10.0859375 113.875,9.1171875 L115.773438,9.1171875 C115.773438,9.6171875 115.941406,10.0234375 116.277344,10.3359375 C116.613281,10.6484375 117.065104,10.8046875 117.632812,10.8046875 C118.221354,10.8046875 118.684896,10.6484375 119.023438,10.3359375 C119.361979,10.0234375 119.53125,9.5703125 119.53125,8.9765625 C119.53125,8.37760417 119.354167,7.91666667 119,7.59375 C118.645833,7.27083333 118.119792,7.109375 117.421875,7.109375 L116.304688,7.109375 L116.304688,5.609375 Z" id="Path"></path>
            </g>
        </g>
    </g>
</svg>