<svg width="126" height="160" viewBox="0 0 126 160" fill="none" xmlns="http://www.w3.org/2000/svg">
<path fill-rule="evenodd" clip-rule="evenodd" d="M62.0142 0L14.6908 94.8148L62.0142 74.6969L109.337 94.8148L62.0142 0Z" fill="black"/>
<path d="M88.4748 142.736C88.9901 142.754 89.5054 142.717 90.0207 142.625C90.536 142.533 90.996 142.376 91.4009 142.155C91.8058 141.915 92.1279 141.593 92.3671 141.187C92.6248 140.782 92.7536 140.284 92.7536 139.694C92.7536 138.864 92.4683 138.2 91.8978 137.703C91.3457 137.205 90.628 136.956 89.7446 136.956C89.1925 136.956 88.714 137.067 88.3091 137.288C87.9043 137.509 87.5638 137.813 87.2877 138.2C87.0301 138.569 86.8369 138.993 86.708 139.473C86.5792 139.933 86.524 140.413 86.5424 140.911H83.3954C83.4322 139.97 83.607 139.104 83.9199 138.311C84.2328 137.5 84.656 136.799 85.1897 136.209C85.7418 135.619 86.4044 135.159 87.1773 134.827C87.9503 134.495 88.8244 134.329 89.7998 134.329C90.5544 134.329 91.2905 134.44 92.0082 134.661C92.7444 134.882 93.3977 135.205 93.9682 135.629C94.5571 136.053 95.0264 136.597 95.3761 137.26C95.7257 137.906 95.9006 138.652 95.9006 139.5C95.9006 140.477 95.6797 141.335 95.2381 142.072C94.7964 142.791 94.1062 143.317 93.1677 143.648V143.704C94.2719 143.925 95.1276 144.478 95.7349 145.363C96.3607 146.229 96.6735 147.29 96.6735 148.543C96.6735 149.465 96.4895 150.295 96.1214 151.032C95.7533 151.751 95.2564 152.369 94.6307 152.885C94.005 153.383 93.2781 153.77 92.4499 154.046C91.6218 154.323 90.7476 154.461 89.8274 154.461C88.7048 154.461 87.7202 154.305 86.8737 153.991C86.0455 153.659 85.3462 153.198 84.7757 152.608C84.2236 152.018 83.8003 151.309 83.5058 150.479C83.2114 149.649 83.0549 148.728 83.0365 147.714H86.1835C86.1467 148.893 86.432 149.88 87.0393 150.673C87.665 151.447 88.5944 151.834 89.8274 151.834C90.8764 151.834 91.7506 151.539 92.4499 150.949C93.1677 150.341 93.5265 149.483 93.5265 148.377C93.5265 147.621 93.3793 147.022 93.0848 146.58C92.7904 146.137 92.4039 145.805 91.9254 145.584C91.4469 145.345 90.904 145.197 90.2967 145.142C89.7078 145.086 89.1005 145.068 88.4748 145.086V142.736Z" fill="black"/>
<path d="M76.4024 150.341H80.2396V154.074H76.4024V150.341Z" fill="black"/>
<path d="M62.5539 134.716H72.547V137.537H64.9003L63.9065 142.459L63.9617 142.515C64.385 142.035 64.9187 141.676 65.5628 141.436C66.2254 141.178 66.8787 141.049 67.5228 141.049C68.4798 141.049 69.3356 141.215 70.0901 141.547C70.8446 141.86 71.4796 142.312 71.9949 142.902C72.5102 143.473 72.8966 144.155 73.1543 144.948C73.4303 145.741 73.5684 146.598 73.5684 147.52C73.5684 148.294 73.4395 149.096 73.1819 149.926C72.9426 150.737 72.547 151.484 71.9949 152.166C71.4612 152.83 70.771 153.383 69.9245 153.825C69.0779 154.249 68.0657 154.461 66.8879 154.461C65.9493 154.461 65.0751 154.332 64.2654 154.074C63.474 153.834 62.7747 153.466 62.1674 152.968C61.5601 152.47 61.0724 151.862 60.7043 151.143C60.3546 150.405 60.1614 149.548 60.1246 148.571H63.2716C63.3636 149.622 63.7225 150.433 64.3482 151.004C64.9739 151.558 65.8021 151.834 66.8327 151.834C67.4952 151.834 68.0565 151.723 68.5166 151.502C68.9767 151.281 69.3448 150.977 69.6208 150.59C69.9153 150.202 70.1177 149.751 70.2281 149.235C70.3569 148.718 70.4214 148.165 70.4214 147.575C70.4214 147.041 70.3477 146.534 70.2005 146.054C70.0533 145.557 69.8324 145.123 69.538 144.755C69.2435 144.386 68.8571 144.091 68.3786 143.87C67.9185 143.648 67.3756 143.538 66.7499 143.538C66.0873 143.538 65.4616 143.667 64.8727 143.925C64.3022 144.165 63.8881 144.626 63.6305 145.308H60.4835L62.5539 134.716Z" fill="black"/>
<path d="M51.4935 134.329C52.8737 134.329 53.9963 134.652 54.8613 135.297C55.7447 135.924 56.4256 136.735 56.9041 137.73C57.401 138.707 57.7322 139.786 57.8979 140.966C58.0819 142.146 58.1739 143.289 58.1739 144.395C58.1739 145.501 58.0819 146.644 57.8979 147.824C57.7322 149.004 57.401 150.092 56.9041 151.087C56.4256 152.065 55.7447 152.876 54.8613 153.521C53.9963 154.148 52.8737 154.461 51.4935 154.461C50.1132 154.461 48.9814 154.148 48.098 153.521C47.233 152.876 46.5521 152.065 46.0552 151.087C45.5767 150.092 45.2455 149.004 45.0614 147.824C44.8958 146.644 44.813 145.501 44.813 144.395C44.813 143.289 44.8958 142.146 45.0614 140.966C45.2455 139.786 45.5767 138.707 46.0552 137.73C46.5521 136.735 47.233 135.924 48.098 135.297C48.9814 134.652 50.1132 134.329 51.4935 134.329ZM51.4935 151.834C52.1744 151.834 52.7449 151.64 53.205 151.253C53.6651 150.848 54.0239 150.313 54.2816 149.649C54.5576 148.967 54.7509 148.174 54.8613 147.271C54.9717 146.368 55.0269 145.409 55.0269 144.395C55.0269 143.381 54.9717 142.432 54.8613 141.547C54.7509 140.643 54.5576 139.851 54.2816 139.168C54.0239 138.486 53.6651 137.952 53.205 137.564C52.7449 137.159 52.1744 136.956 51.4935 136.956C50.7941 136.956 50.2144 137.159 49.7543 137.564C49.3126 137.952 48.9538 138.486 48.6777 139.168C48.4201 139.851 48.236 140.643 48.1256 141.547C48.0152 142.432 47.96 143.381 47.96 144.395C47.96 145.409 48.0152 146.368 48.1256 147.271C48.236 148.174 48.4201 148.967 48.6777 149.649C48.9538 150.313 49.3126 150.848 49.7543 151.253C50.2144 151.64 50.7941 151.834 51.4935 151.834Z" fill="black"/>
<path d="M29.943 137.924C30.6055 137.924 31.2497 137.869 31.8754 137.758C32.5011 137.647 33.0624 137.463 33.5593 137.205C34.0746 136.947 34.5071 136.615 34.8568 136.209C35.2248 135.804 35.4641 135.306 35.5745 134.716H38.1418V154.074H34.6911V140.413H29.943V137.924Z" fill="black"/>
<path d="M101.993 109.138H104.975V111.129H105.058C105.297 110.779 105.555 110.456 105.831 110.161C106.107 109.866 106.41 109.617 106.742 109.414C107.091 109.212 107.487 109.055 107.929 108.944C108.37 108.815 108.876 108.751 109.447 108.751C110.312 108.751 111.112 108.944 111.849 109.331C112.603 109.719 113.137 110.318 113.45 111.129C113.983 110.391 114.6 109.811 115.299 109.387C115.999 108.963 116.873 108.751 117.922 108.751C119.431 108.751 120.599 109.119 121.428 109.857C122.274 110.594 122.697 111.829 122.697 113.562V123.435H119.55V115.083C119.55 114.512 119.532 113.996 119.495 113.535C119.458 113.055 119.348 112.65 119.164 112.318C118.998 111.968 118.741 111.7 118.391 111.516C118.041 111.332 117.563 111.24 116.956 111.24C115.888 111.24 115.115 111.571 114.637 112.235C114.158 112.899 113.919 113.839 113.919 115.056V123.435H110.772V114.254C110.772 113.258 110.588 112.512 110.22 112.014C109.87 111.498 109.217 111.24 108.26 111.24C107.855 111.24 107.459 111.322 107.073 111.488C106.705 111.654 106.373 111.894 106.079 112.207C105.803 112.521 105.573 112.908 105.389 113.369C105.223 113.83 105.14 114.355 105.14 114.945V123.435H101.993V109.138Z" fill="black"/>
<path d="M91.8781 109.138H94.2245V107.949C94.2245 107.045 94.335 106.317 94.5558 105.764C94.7766 105.192 95.0711 104.759 95.4392 104.464C95.8072 104.151 96.2213 103.948 96.6814 103.856C97.1599 103.745 97.6568 103.69 98.1721 103.69C99.1843 103.69 99.9204 103.754 100.38 103.883V106.345C100.178 106.289 99.9572 106.253 99.718 106.234C99.4971 106.197 99.2303 106.179 98.9174 106.179C98.4941 106.179 98.1261 106.28 97.8132 106.483C97.5188 106.686 97.3715 107.082 97.3715 107.672V109.138H100.049V111.488H97.3715V123.435H94.2245V111.488H91.8781V109.138Z" fill="black"/>
<path d="M85.8513 119.702H89.6884V123.435H85.8513V119.702Z" fill="black"/>
<path d="M74.9746 109.138H77.3487V104.851H80.4957V109.138H83.339V111.488H80.4957V119.121C80.4957 119.453 80.5049 119.739 80.5233 119.978C80.5601 120.218 80.6245 120.421 80.7165 120.587C80.8269 120.753 80.9834 120.882 81.1858 120.974C81.3882 121.048 81.6643 121.084 82.0139 121.084C82.2348 121.084 82.4556 121.084 82.6765 121.084C82.8973 121.066 83.1182 121.029 83.339 120.974V123.407C82.9893 123.444 82.6489 123.481 82.3176 123.518C81.9863 123.555 81.6459 123.573 81.2962 123.573C80.4681 123.573 79.7963 123.5 79.281 123.352C78.7841 123.186 78.3885 122.956 78.094 122.661C77.818 122.347 77.6247 121.96 77.5143 121.499C77.4223 121.038 77.3671 120.513 77.3487 119.923V111.488H74.9746V109.138Z" fill="black"/>
<path d="M60.5586 109.138H63.54V111.24L63.5952 111.295C64.0737 110.502 64.6994 109.884 65.4724 109.442C66.2453 108.981 67.1011 108.751 68.0396 108.751C69.6039 108.751 70.837 109.156 71.7388 109.967C72.6405 110.779 73.0914 111.995 73.0914 113.618V123.435H69.9444V114.447C69.9076 113.323 69.6684 112.512 69.2267 112.014C68.785 111.498 68.0949 111.24 67.1563 111.24C66.6226 111.24 66.1441 111.341 65.7208 111.544C65.2975 111.728 64.9387 111.995 64.6442 112.346C64.3497 112.678 64.1197 113.074 63.9541 113.535C63.7884 113.996 63.7056 114.484 63.7056 115V123.435H60.5586V109.138Z" fill="black"/>
<path d="M55.0193 115.028C54.9825 114.53 54.872 114.051 54.688 113.59C54.5224 113.129 54.2831 112.733 53.9703 112.401C53.6758 112.051 53.3077 111.774 52.8661 111.571C52.4428 111.35 51.9643 111.24 51.4306 111.24C50.8785 111.24 50.3724 111.341 49.9123 111.544C49.4706 111.728 49.0841 111.995 48.7529 112.346C48.44 112.678 48.1824 113.074 47.9799 113.535C47.7959 113.996 47.6947 114.493 47.6763 115.028H55.0193ZM47.6763 117.102C47.6763 117.655 47.7499 118.19 47.8971 118.706C48.0627 119.222 48.302 119.674 48.6148 120.061C48.9277 120.448 49.3234 120.762 49.8019 121.001C50.2804 121.223 50.8509 121.333 51.5134 121.333C52.4336 121.333 53.1697 121.14 53.7218 120.753C54.2923 120.347 54.7156 119.748 54.9917 118.955H57.973C57.8074 119.729 57.5221 120.421 57.1173 121.029C56.7124 121.638 56.2247 122.154 55.6542 122.578C55.0837 122.983 54.4396 123.288 53.7218 123.49C53.0225 123.712 52.2863 123.822 51.5134 123.822C50.3908 123.822 49.397 123.638 48.532 123.269C47.6671 122.9 46.9309 122.384 46.3236 121.72C45.7347 121.057 45.2838 120.264 44.971 119.342C44.6765 118.42 44.5293 117.406 44.5293 116.3C44.5293 115.286 44.6857 114.328 44.9986 113.424C45.3298 112.502 45.7899 111.7 46.3788 111.018C46.9861 110.318 47.7131 109.765 48.5596 109.359C49.4062 108.953 50.3632 108.751 51.4306 108.751C52.5532 108.751 53.5562 108.99 54.4396 109.47C55.3413 109.931 56.0867 110.548 56.6756 111.322C57.2645 112.097 57.6878 112.991 57.9454 114.005C58.2215 115 58.2951 116.033 58.1663 117.102H47.6763Z" fill="black"/>
<path d="M42.051 122.688C42.051 124.845 41.4437 126.449 40.2291 127.5C39.0329 128.57 37.3029 129.104 35.0393 129.104C34.3216 129.104 33.5946 129.03 32.8585 128.883C32.1407 128.735 31.4782 128.487 30.8709 128.136C30.282 127.786 29.7851 127.325 29.3802 126.754C28.9753 126.182 28.7361 125.481 28.6625 124.652H31.8095C31.9015 125.094 32.0579 125.454 32.2788 125.73C32.4996 126.007 32.7573 126.219 33.0517 126.366C33.3646 126.532 33.705 126.634 34.0731 126.671C34.4412 126.726 34.8277 126.754 35.2325 126.754C36.5024 126.754 37.4318 126.44 38.0207 125.813C38.6096 125.187 38.904 124.283 38.904 123.103V120.919H38.8488C38.4071 121.711 37.7998 122.329 37.0269 122.771C36.2723 123.214 35.4534 123.435 34.57 123.435C33.429 123.435 32.4536 123.241 31.6438 122.854C30.8525 122.449 30.19 121.905 29.6563 121.223C29.141 120.522 28.7637 119.72 28.5245 118.817C28.2852 117.913 28.1656 116.946 28.1656 115.913C28.1656 114.954 28.3128 114.042 28.6073 113.175C28.9017 112.309 29.325 111.553 29.8771 110.908C30.4292 110.244 31.1009 109.719 31.8923 109.331C32.7021 108.944 33.613 108.751 34.6252 108.751C35.527 108.751 36.3551 108.944 37.1097 109.331C37.8642 109.7 38.4439 110.29 38.8488 111.101H38.904V109.138H42.051V122.688ZM35.0669 120.946C35.7662 120.946 36.3551 120.808 36.8336 120.531C37.3305 120.236 37.7262 119.858 38.0207 119.398C38.3335 118.918 38.5544 118.384 38.6832 117.794C38.8304 117.185 38.904 116.577 38.904 115.968C38.904 115.36 38.8304 114.77 38.6832 114.199C38.536 113.627 38.3059 113.12 37.9931 112.678C37.6986 112.235 37.3029 111.885 36.806 111.627C36.3275 111.369 35.7478 111.24 35.0669 111.24C34.3676 111.24 33.7787 111.387 33.3002 111.682C32.8217 111.977 32.4352 112.364 32.1407 112.843C31.8463 113.304 31.6346 113.839 31.5058 114.447C31.377 115.037 31.3126 115.627 31.3126 116.217C31.3126 116.807 31.3862 117.388 31.5334 117.96C31.6807 118.513 31.9015 119.01 32.196 119.453C32.5088 119.895 32.8953 120.255 33.3554 120.531C33.8339 120.808 34.4044 120.946 35.0669 120.946Z" fill="black"/>
<path d="M19.1508 109.138H22.1045V111.903H22.1597C22.2517 111.516 22.4266 111.138 22.6842 110.769C22.9603 110.401 23.2823 110.069 23.6504 109.774C24.0369 109.46 24.4602 109.212 24.9203 109.027C25.3803 108.843 25.8496 108.751 26.3281 108.751C26.6962 108.751 26.9446 108.76 27.0735 108.778C27.2207 108.797 27.3679 108.815 27.5151 108.834V111.876C27.2943 111.839 27.0643 111.811 26.825 111.793C26.6042 111.756 26.3833 111.737 26.1625 111.737C25.6288 111.737 25.1227 111.848 24.6442 112.069C24.1841 112.272 23.7792 112.585 23.4296 113.009C23.0799 113.415 22.8039 113.922 22.6014 114.53C22.399 115.139 22.2978 115.839 22.2978 116.632V123.435H19.1508V109.138Z" fill="black"/>
<path d="M15.8321 123.435H12.7403V121.444H12.6851C12.2986 122.163 11.7189 122.744 10.946 123.186C10.1914 123.61 9.41848 123.822 8.62713 123.822C6.74997 123.822 5.38811 123.361 4.54155 122.44C3.7134 121.499 3.29932 120.089 3.29932 118.208V109.138H6.44631V117.904C6.44631 119.158 6.68556 120.043 7.16405 120.559C7.64254 121.075 8.31427 121.333 9.17923 121.333C9.84176 121.333 10.3939 121.232 10.8355 121.029C11.2772 120.826 11.6361 120.559 11.9122 120.227C12.1882 119.877 12.3814 119.462 12.4919 118.983C12.6207 118.503 12.6851 117.987 12.6851 117.434V109.138H15.8321V123.435Z" fill="black"/>
</svg>
