<?xml version="1.0" encoding="UTF-8" standalone="no"?>
<svg
   viewBox="0 0 20 20"
   version="1.1"
   id="svg1"
   sodipodi:docname="email.svg"
   width="20"
   height="20"
   inkscape:version="1.3.2 (091e20e, 2023-11-25, custom)"
   xmlns:inkscape="http://www.inkscape.org/namespaces/inkscape"
   xmlns:sodipodi="http://sodipodi.sourceforge.net/DTD/sodipodi-0.dtd"
   xmlns="http://www.w3.org/2000/svg"
   xmlns:svg="http://www.w3.org/2000/svg">
  <defs
     id="defs1" />
  <sodipodi:namedview
     id="namedview1"
     pagecolor="#ffffff"
     bordercolor="#000000"
     borderopacity="0.25"
     inkscape:showpageshadow="2"
     inkscape:pageopacity="0.0"
     inkscape:pagecheckerboard="0"
     inkscape:deskcolor="#d1d1d1"
     showguides="false"
     inkscape:zoom="8"
     inkscape:cx="60"
     inkscape:cy="-22.9375"
     inkscape:window-width="2400"
     inkscape:window-height="1271"
     inkscape:window-x="2391"
     inkscape:window-y="-9"
     inkscape:window-maximized="1"
     inkscape:current-layer="svg1" />
  <title
     id="title1" />
  <g
     id="Email"
     transform="matrix(0.71419233,0,0,0.71419233,-1.4270773,-1.4270773)">
    <path
       d="M 26.49,30 H 5.5 A 3.35,3.35 0 0 1 3,29 3.35,3.35 0 0 1 2,26.52 V 5.5 A 3.35,3.35 0 0 1 3,3 3.35,3.35 0 0 1 5.5,2 h 21 a 3.35,3.35 0 0 1 2.5,1 3.35,3.35 0 0 1 1,2.5 v 21 A 3.52,3.52 0 0 1 26.49,30 Z m -2.62,-6.9 a 1,1 0 0 0 0.57,-0.19 1.23,1.23 0 0 0 0.7,-1.1 V 9.93 A 0.93,0.93 0 0 0 25,9.4 1.32,1.32 0 0 0 23.87,8.66 H 7.93 A 0.69,0.69 0 0 0 7.63,8.76 1.26,1.26 0 0 0 6.77,9.9 v 11.91 a 1,1 0 0 0 0.17,0.55 1.28,1.28 0 0 0 1.12,0.74 z M 22.51,20.44 H 9.41 V 13 L 16,18.21 22.51,13 Z M 16,14.81 c -2.89,-2.28 -4.37,-3.46 -4.44,-3.52 h 8.84 z"
       id="path1" />
  </g>
</svg>
