<?xml version="1.0" encoding="UTF-8"?>
<svg width="24px" height="24px" viewBox="0 0 24 24" version="1.1" xmlns="http://www.w3.org/2000/svg" xmlns:xlink="http://www.w3.org/1999/xlink">
    <title>C1A40ECF-DCDD-4915-A762-648FED681F4F</title>
    <g id="Page-2-Copy" stroke="none" stroke-width="1" fill="none" fill-rule="evenodd">
        <g id="programma-detail" transform="translate(-277.000000, -1000.000000)" fill="#FFFFFF" fill-rule="nonzero">
            <path d="M298.142857,1000 L279.857143,1000 C278.28,1000 277,1001.28 277,1002.85714 L277,1021.14286 C277,1022.72 278.28,1024 279.857143,1024 L298.142857,1024 C299.72,1024 301,1022.72 301,1021.14286 L301,1002.85714 C301,1001.28 299.72,1000 298.142857,1000 Z M295.857143,1008.57143 L294.714286,1008.57143 C293.491429,1008.57143 293,1008.85714 293,1009.71429 L293,1011.42857 L295.857143,1011.42857 L295.285714,1014.28571 L293,1014.28571 L293,1022.85714 L290.142857,1022.85714 L290.142857,1014.28571 L287.857143,1014.28571 L287.857143,1011.42857 L290.142857,1011.42857 L290.142857,1009.71429 C290.142857,1007.42857 291.285714,1005.71429 293.571429,1005.71429 C295.228571,1005.71429 295.857143,1006.28571 295.857143,1006.28571 L295.857143,1008.57143 Z" id="Shape"></path>
        </g>
    </g>
</svg>