<?xml version="1.0" encoding="UTF-8"?>
<svg width="20px" height="20px" viewBox="0 0 20 20" version="1.1" xmlns="http://www.w3.org/2000/svg" xmlns:xlink="http://www.w3.org/1999/xlink">
    <title>icons/facebook</title>
    <g id="Symbols" stroke="none" stroke-width="1" fill="none" fill-rule="evenodd">
        <g id="social-media" transform="translate(-2.000000, -2.000000)" fill="#000000" fill-rule="nonzero">
            <g id="icons8-facebook" transform="translate(2.000000, 2.000000)">
                <path d="M17.6190476,0 L2.38095238,0 C1.06666667,0 0,1.06666667 0,2.38095238 L0,17.6190476 C0,18.9333333 1.06666667,20 2.38095238,20 L17.6190476,20 C18.9333333,20 20,18.9333333 20,17.6190476 L20,2.38095238 C20,1.06666667 18.9333333,0 17.6190476,0 Z M15.7142857,7.14285714 L14.7619048,7.14285714 C13.7428571,7.14285714 13.3333333,7.38095238 13.3333333,8.0952381 L13.3333333,9.52380952 L15.7142857,9.52380952 L15.2380952,11.9047619 L13.3333333,11.9047619 L13.3333333,19.047619 L10.952381,19.047619 L10.952381,11.9047619 L9.04761905,11.9047619 L9.04761905,9.52380952 L10.952381,9.52380952 L10.952381,8.0952381 C10.952381,6.19047619 11.9047619,4.76190476 13.8095238,4.76190476 C15.1904762,4.76190476 15.7142857,5.23809524 15.7142857,5.23809524 L15.7142857,7.14285714 Z" id="Shape"></path>
            </g>
        </g>
    </g>
</svg>