<?xml version="1.0" encoding="UTF-8"?>
<svg width="20px" height="20px" viewBox="0 0 20 20" version="1.1" xmlns="http://www.w3.org/2000/svg" xmlns:xlink="http://www.w3.org/1999/xlink">
    <title>icons/instagram</title>
    <g id="Symbols" stroke="none" stroke-width="1" fill="none" fill-rule="evenodd">
        <g id="social-media" transform="translate(-82.000000, -2.000000)" fill="#000000" fill-rule="nonzero">
            <g id="Group" transform="translate(80.000000, 0.000000)">
                <g id="icons8-instagram" transform="translate(2.000000, 2.000000)">
                    <path d="M5.90909091,0 C2.65,0 0,2.65 0,5.90909091 L0,14.0909091 C0,17.35 2.65,20 5.90909091,20 L14.0909091,20 C17.35,20 20,17.35 20,14.0909091 L20,5.90909091 C20,2.65 17.35,0 14.0909091,0 L5.90909091,0 Z M15.4545455,3.63636364 C15.9545455,3.63636364 16.3636364,4.04545455 16.3636364,4.54545455 C16.3636364,5.04545455 15.9545455,5.45454545 15.4545455,5.45454545 C14.9545455,5.45454545 14.5454545,5.04545455 14.5454545,4.54545455 C14.5454545,4.04545455 14.9545455,3.63636364 15.4545455,3.63636364 Z M10,5 C12.7590909,5 15,7.24090909 15,10 C15,12.7590909 12.7590909,15 10,15 C7.24090909,15 5,12.7590909 5,10 C5,7.24090909 7.24090909,5 10,5 Z M10,5.90909091 C7.74545455,5.90909091 5.90909091,7.74545455 5.90909091,10 C5.90909091,12.2545455 7.74545455,14.0909091 10,14.0909091 C12.2545455,14.0909091 14.0909091,12.2545455 14.0909091,10 C14.0909091,7.74545455 12.2545455,5.90909091 10,5.90909091 Z" id="Shape"></path>
                </g>
            </g>
        </g>
    </g>
</svg>