<?xml version="1.0" encoding="UTF-8"?>
<svg width="24px" height="24px" viewBox="0 0 24 24" version="1.1" xmlns="http://www.w3.org/2000/svg" xmlns:xlink="http://www.w3.org/1999/xlink">
    <title>5A97F2E5-7B2E-4D75-90BF-DB7A5F0B25D8</title>
    <g id="Page-2-Copy" stroke="none" stroke-width="1" fill="none" fill-rule="evenodd">
        <g id="programma-detail" transform="translate(-277.000000, -1040.000000)" fill="#FFFFFF" fill-rule="nonzero">
            <path d="M284.090909,1040 C280.18,1040 277,1043.18 277,1047.09091 L277,1056.90909 C277,1060.82 280.18,1064 284.090909,1064 L293.909091,1064 C297.82,1064 301,1060.82 301,1056.90909 L301,1047.09091 C301,1043.18 297.82,1040 293.909091,1040 L284.090909,1040 Z M295.545455,1044.36364 C296.145455,1044.36364 296.636364,1044.85455 296.636364,1045.45455 C296.636364,1046.05455 296.145455,1046.54545 295.545455,1046.54545 C294.945455,1046.54545 294.454545,1046.05455 294.454545,1045.45455 C294.454545,1044.85455 294.945455,1044.36364 295.545455,1044.36364 Z M289,1046 C292.310909,1046 295,1048.68909 295,1052 C295,1055.31091 292.310909,1058 289,1058 C285.689091,1058 283,1055.31091 283,1052 C283,1048.68909 285.689091,1046 289,1046 Z M289,1047.09091 C286.294545,1047.09091 284.090909,1049.29455 284.090909,1052 C284.090909,1054.70545 286.294545,1056.90909 289,1056.90909 C291.705455,1056.90909 293.909091,1054.70545 293.909091,1052 C293.909091,1049.29455 291.705455,1047.09091 289,1047.09091 Z" id="Shape"></path>
        </g>
    </g>
</svg>