<?xml version="1.0" encoding="UTF-8"?>
<svg width="13px" height="12px" viewBox="0 0 13 12" version="1.1" xmlns="http://www.w3.org/2000/svg" xmlns:xlink="http://www.w3.org/1999/xlink">
    <title>2DC29F12-85C7-4A8F-95FF-4B7E26D20C8E</title>
    <g id="Page-2-Copy" stroke="none" stroke-width="1" fill="none" fill-rule="evenodd">
        <g id="home" transform="translate(-718.000000, -74.000000)" fill="#000000" fill-rule="nonzero">
            <g id="Group-26" transform="translate(175.000000, 67.000000)">
                <g id="Group-25" transform="translate(461.000000, 0.000000)">
                    <path d="M84.3113553,7 C83.5826468,7 82.978022,7.6046248 82.978022,8.33333333 L82.978022,17.6666667 C82.978022,18.3953753 83.5826468,19 84.3113553,19 L93.6446886,19 C94.3733973,19 94.978022,18.3953753 94.978022,17.6666667 L94.978022,13 L93.6446886,13 L93.6446886,17.6666667 L84.3113553,17.6666667 L84.3113553,8.33333333 L88.978022,8.33333333 L88.978022,7 L84.3113553,7 Z M90.3113553,7 L90.3113553,8.33333333 L92.7019806,8.33333333 L86.5066678,14.528646 L87.4493761,15.471354 L93.6446886,9.27604167 L93.6446886,11.6666667 L94.978022,11.6666667 L94.978022,7 L90.3113553,7 Z" id="Shape"></path>
                </g>
            </g>
        </g>
    </g>
</svg>