<?xml version="1.0" encoding="UTF-8"?>
<svg width="80px" height="80px" viewBox="0 0 80 80" version="1.1" xmlns="http://www.w3.org/2000/svg" xmlns:xlink="http://www.w3.org/1999/xlink">
    <title>6EBBB9E5-8CBC-4865-BAA1-C4623FD76970</title>
    <g id="Page-2-Copy" stroke="none" stroke-width="1" fill="none" fill-rule="evenodd">
        <g id="home" transform="translate(-1307.000000, -771.000000)" fill="#FFFFFF" fill-rule="nonzero">
            <g id="Group-29" transform="translate(35.000000, 755.000000)">
                <path d="M1280.88889,16 C1276.03083,16 1272,20.030832 1272,24.8888889 L1272,87.1111111 C1272,91.9691689 1276.03083,96 1280.88889,96 L1343.11111,96 C1347.96917,96 1352,91.9691689 1352,87.1111111 L1352,56 L1343.11111,56 L1343.11111,87.1111111 L1280.88889,87.1111111 L1280.88889,24.8888889 L1312,24.8888889 L1312,16 L1280.88889,16 Z M1320.88889,16 L1320.88889,24.8888889 L1336.82639,24.8888889 L1295.52431,66.1909733 L1301.80903,72.4756933 L1343.11111,31.1736111 L1343.11111,47.1111111 L1352,47.1111111 L1352,16 L1320.88889,16 Z" id="Shape"></path>
            </g>
        </g>
    </g>
</svg>