<?xml version="1.0" encoding="UTF-8"?>
<svg width="24px" height="24px" viewBox="0 0 24 24" version="1.1" xmlns="http://www.w3.org/2000/svg" xmlns:xlink="http://www.w3.org/1999/xlink">
    <title>6B6CE8EF-F60B-4AB5-BF31-6471FC45480E</title>
    <g id="Page-2-Copy" stroke="none" stroke-width="1" fill="none" fill-rule="evenodd">
        <g id="home" transform="translate(-597.000000, -579.000000)" fill="#3ED8A0" fill-rule="nonzero">
            <g id="Group-27" transform="translate(272.000000, 211.000000)">
                <g id="button/secondary" transform="translate(320.000000, 364.000000)">
                    <g id="icons/next" transform="translate(5.000000, 4.000000)">
                        <g id="icons8-left" transform="translate(11.679199, 12.011323) scale(-1, 1) translate(-11.679199, -12.011323) translate(3.000000, 6.000000)">
                            <path d="M6.3125,0.00158484051 C6.0507815,0.0113503405 5.8046875,0.124631841 5.625,0.314084841 L0.6875,5.31408484 L0,6.01720984 L0.6875,6.72033484 L5.625,11.7203348 C6.013672,12.1168193 6.6503905,12.1246318 7.046875,11.7359598 C7.4433595,11.3472878 7.451172,10.7105693 7.0625,10.3140848 L3.796875,7.01720984 L16.34375,7.01720984 C16.705078,7.02306934 17.0390625,6.83361634 17.220703,6.52111634 C17.404297,6.21056934 17.404297,5.82385034 17.220703,5.51330384 C17.0390625,5.20080384 16.705078,5.01135034 16.34375,5.01720984 L3.796875,5.01720984 L7.0625,1.72033484 C7.3632815,1.42931934 7.453125,0.984006841 7.2851565,0.599241341 C7.1171875,0.216428841 6.730469,-0.0218526595 6.3125,0.00158484051 Z" id="Path"></path>
                        </g>
                    </g>
                </g>
            </g>
        </g>
    </g>
</svg>