<?xml version="1.0" encoding="UTF-8"?>
<svg width="40px" height="40px" viewBox="0 0 40 40" version="1.1" xmlns="http://www.w3.org/2000/svg" xmlns:xlink="http://www.w3.org/1999/xlink">
    <title>icons/search</title>
    <g id="Symbols" stroke="none" stroke-width="1" fill="none" fill-rule="evenodd">
        <g id="search" transform="translate(-433.000000, 0.000000)" fill="#000000" fill-rule="nonzero">
            <g id="icons/search" transform="translate(433.000000, 0.000000)">
                <path d="M17.4883721,9 C12.2427328,9 8,13.1463071 8,18.2727273 C8,23.399148 12.2427328,27.5454545 17.4883721,27.5454545 C19.361192,27.5454545 21.094477,27.0085227 22.5639535,26.0965909 L29.4186047,32.7954545 L31.7906977,30.4772727 L25.0232558,23.8806818 C26.2398259,22.3210227 26.9767442,20.3884942 26.9767442,18.2727273 C26.9767442,13.1463071 22.7340119,9 17.4883721,9 Z M17.4883721,11.1818182 C21.5065408,11.1818182 24.744186,14.3458805 24.744186,18.2727273 C24.744186,22.199574 21.5065408,25.3636364 17.4883721,25.3636364 C13.4702033,25.3636364 10.2325581,22.199574 10.2325581,18.2727273 C10.2325581,14.3458805 13.4702033,11.1818182 17.4883721,11.1818182 Z" id="Shape"></path>
            </g>
        </g>
    </g>
</svg>