<?xml version="1.0" encoding="UTF-8" standalone="no"?>
<svg
   viewBox="0 0 106.66667 106.66667"
   width="20"
   height="20"
   version="1.1"
   id="svg3"
   sodipodi:docname="spotify.svg"
   inkscape:version="1.3.2 (091e20e, 2023-11-25, custom)"
   xmlns:inkscape="http://www.inkscape.org/namespaces/inkscape"
   xmlns:sodipodi="http://sodipodi.sourceforge.net/DTD/sodipodi-0.dtd"
   xmlns="http://www.w3.org/2000/svg"
   xmlns:svg="http://www.w3.org/2000/svg">
  <defs
     id="defs3" />
  <sodipodi:namedview
     id="namedview3"
     pagecolor="#ffffff"
     bordercolor="#000000"
     borderopacity="0.25"
     inkscape:showpageshadow="2"
     inkscape:pageopacity="0.0"
     inkscape:pagecheckerboard="0"
     inkscape:deskcolor="#d1d1d1"
     inkscape:zoom="22.020833"
     inkscape:cx="23.977294"
     inkscape:cy="24"
     inkscape:window-width="2400"
     inkscape:window-height="1271"
     inkscape:window-x="2391"
     inkscape:window-y="-9"
     inkscape:window-maximized="1"
     inkscape:current-layer="svg3" />
  <path
     id="shape"
     style="font-family:none;mix-blend-mode:normal;fill:#000000;fill-rule:nonzero;stroke:none;stroke-width:0.416667;stroke-linecap:butt;stroke-linejoin:miter;stroke-miterlimit:10;stroke-dasharray:none;stroke-dashoffset:0"
     d="M 10.666667 0 C 4.7756351 0 0 4.7756351 0 10.666667 L 0 96.000003 C 0 101.89104 4.7756351 106.66667 10.666667 106.66667 L 96.000003 106.66667 C 101.89104 106.66667 106.66667 101.89104 106.66667 96.000003 L 106.66667 10.666667 C 106.66667 4.7756351 101.89104 0 96.000003 0 L 10.666667 0 z M 53.333335 8.8854169 C 77.839806 8.8854169 97.781253 28.826863 97.781253 53.333335 C 97.781253 77.839806 77.839806 97.781253 53.333335 97.781253 C 28.826863 97.781253 8.8854169 77.839806 8.8854169 53.333335 C 8.8854169 28.826863 28.826863 8.8854169 53.333335 8.8854169 z M 48.270835 34.895834 C 41.420735 34.816191 34.525001 35.692087 27.770834 37.552085 C 25.995282 38.043195 24.959029 39.880699 25.447917 41.656251 C 25.939027 43.429583 27.78542 44.459168 29.552084 43.979168 C 45.93428 39.456954 63.212109 41.285709 78.218752 49.114585 C 78.712085 49.37014 79.24042 49.500002 79.760419 49.500002 C 80.964862 49.495557 82.123198 48.840139 82.718753 47.697918 C 83.569863 46.06681 82.935416 44.046806 81.302086 43.197918 C 70.986835 37.818771 59.687661 35.02859 48.270835 34.895834 z M 46.322918 48.968752 C 41.416661 49.054104 36.498119 49.731253 31.666668 51.000002 C 29.884448 51.468889 28.814585 53.292921 29.281251 55.072918 C 29.747917 56.855138 31.569725 57.912362 33.354168 57.447918 C 46.48748 53.996813 60.358077 55.497789 72.395836 61.666669 C 72.882501 61.915556 73.39292 62.031252 73.906252 62.031252 C 75.115139 62.033474 76.283892 61.369862 76.875002 60.218752 C 77.715002 58.580978 77.064861 56.569167 75.427086 55.729168 C 66.989588 51.404175 57.751386 49.125129 48.416668 48.968752 C 47.716561 48.957024 47.023812 48.956558 46.322918 48.968752 z M 48.625002 63.062502 C 44.34652 62.953214 40.040422 63.394992 35.822918 64.395835 C 34.03181 64.818057 32.927502 66.612922 33.354168 68.406252 C 33.776389 70.195138 35.555698 71.308335 37.364585 70.875002 C 47.097903 68.570562 57.380711 69.715287 66.322919 74.104169 C 66.796251 74.33528 67.298336 74.437502 67.791669 74.437502 C 69.025001 74.439724 70.213892 73.752917 70.791669 72.572919 C 71.602779 70.919589 70.924166 68.925695 69.270835 68.114585 C 62.81529 64.945146 55.75579 63.244636 48.625002 63.062502 z " />
</svg>
