<?xml version="1.0" encoding="UTF-8" standalone="no"?>
<svg
   viewBox="0 0 48 48"
   width="20"
   height="20"
   version="1.1"
   id="svg1"
   sodipodi:docname="tiktok.svg"
   inkscape:version="1.3.2 (091e20e, 2023-11-25, custom)"
   xmlns:inkscape="http://www.inkscape.org/namespaces/inkscape"
   xmlns:sodipodi="http://sodipodi.sourceforge.net/DTD/sodipodi-0.dtd"
   xmlns="http://www.w3.org/2000/svg"
   xmlns:svg="http://www.w3.org/2000/svg">
  <defs
     id="defs1" />
  <sodipodi:namedview
     id="namedview1"
     pagecolor="#ffffff"
     bordercolor="#000000"
     borderopacity="0.25"
     inkscape:showpageshadow="2"
     inkscape:pageopacity="0.0"
     inkscape:pagecheckerboard="0"
     inkscape:deskcolor="#d1d1d1"
     inkscape:zoom="52.85"
     inkscape:cx="7.4929044"
     inkscape:cy="7.5023652"
     inkscape:window-width="2400"
     inkscape:window-height="1271"
     inkscape:window-x="2391"
     inkscape:window-y="-9"
     inkscape:window-maximized="1"
     inkscape:current-layer="svg1" />
  <path
     d="M 7.333333,0 C 3.3069679,0 0,3.3069679 0,7.333333 V 40.666667 C 0,44.693032 3.3069679,48 7.333333,48 H 40.666667 C 44.693032,48 48,44.693032 48,40.666667 V 7.333333 C 48,3.3069679 44.693032,0 40.666667,0 Z m 21.333334,6.666667 c 1.106666,0 2,0.893333 2,2 C 30.666667,12.706667 33.96,16 38,16 c 1.106667,0 2,0.893333 2,2 0,1.106667 -0.893333,2 -2,2 -2.8,0 -5.36,-1.012708 -7.333333,-2.692708 v 13.359375 c 0,5.88 -4.786667,10.666666 -10.666667,10.666666 -5.88,0 -10.666667,-4.786666 -10.666667,-10.666666 C 9.333333,24.786667 14.12,20 20,20 c 0.28,0 0.558855,0.01271 0.825521,0.02604 1.106667,0.09333 1.934479,1.055104 1.841146,2.148438 -0.08,1.106666 -1.039167,1.931562 -2.145834,1.851562 C 20.3475,24.012708 20.173333,24 20,24 c -3.68,0 -6.666667,2.986667 -6.666667,6.666667 0,3.68 2.986667,6.666666 6.666667,6.666666 3.68,0 6.666667,-2.986666 6.666667,-6.666666 v -22 c 0,-1.106667 0.893333,-2 2,-2 z"
     id="path1"
     style="stroke-width:1.33333" />
</svg>
