<?xml version="1.0" encoding="UTF-8"?>
<svg width="20px" height="16px" viewBox="0 0 20 16" version="1.1" xmlns="http://www.w3.org/2000/svg" xmlns:xlink="http://www.w3.org/1999/xlink">
    <title>icons/twitter</title>
    <g id="Symbols" stroke="none" stroke-width="1" fill="none" fill-rule="evenodd">
        <g id="social-media" transform="translate(-122.000000, -4.000000)" fill="#000000" fill-rule="nonzero">
            <g id="Group" transform="translate(120.000000, 0.000000)">
                <g id="icons8-twitter" transform="translate(2.000000, 4.000000)">
                    <path d="M19.6394231,2.09134615 C18.9287862,2.40685115 18.1670673,2.61869 17.3662862,2.71484385 C18.1835938,2.22506 18.8115985,1.44981962 19.1060696,0.527343846 C18.3428485,0.979567308 17.4939904,1.30859385 16.5940504,1.48587731 C15.8728965,0.716646538 14.8452523,0.23738 13.7079327,0.23738 C11.5234377,0.23738 9.75210346,2.00721154 9.75210346,4.19170692 C9.75210346,4.50120192 9.78816115,4.803185 9.85576923,5.09314923 C6.56850962,4.92788462 3.65534846,3.35336538 1.70372615,0.960036154 C1.36268038,1.54597346 1.16887038,2.22506 1.16887038,2.94921885 C1.16887038,4.32091346 1.86598577,5.53185115 2.928185,6.24248808 C2.27914654,6.22145423 1.66917077,6.04266846 1.13581731,5.74669462 C1.13581731,5.76322115 1.13581731,5.77974769 1.13581731,5.79627423 C1.13581731,7.71334154 2.5,9.31039654 4.30739192,9.67548077 C3.97686308,9.765625 3.62680308,9.81370192 3.26622615,9.81370192 C3.01081731,9.81370192 2.76292077,9.78966346 2.52103385,9.74158654 C3.02584154,11.3115985 4.48617808,12.4579327 6.21544462,12.4894831 C4.86328115,13.5501804 3.15805308,14.18119 1.30408654,14.18119 C0.984074615,14.18119 0.670072308,14.1631612 0.362079308,14.1256012 C2.11087731,15.2493992 4.19020423,15.9029446 6.42427885,15.9029446 C13.6989185,15.9029446 17.6772838,9.87680308 17.6772838,4.65144231 C17.6772838,4.48016846 17.6727765,4.30739192 17.6667669,4.13912269 C18.4390023,3.58173077 19.1090746,2.88461538 19.6394231,2.09134615 Z" id="Path"></path>
                </g>
            </g>
        </g>
    </g>
</svg>