<?xml version="1.0" encoding="UTF-8"?>
<svg width="20px" height="16px" viewBox="0 0 20 16" version="1.1" xmlns="http://www.w3.org/2000/svg" xmlns:xlink="http://www.w3.org/1999/xlink">
    <title>icons/youtube</title>
    <g id="Symbols" stroke="none" stroke-width="1" fill="none" fill-rule="evenodd">
        <g id="social-media" transform="translate(-42.000000, -4.000000)" fill="#000000" fill-rule="nonzero">
            <g id="Group" transform="translate(40.000000, 0.000000)">
                <g id="icons8-play_button" transform="translate(2.000000, 4.500000)">
                    <path d="M19.0447445,2.5 C18.8636364,1.500355 18.0007105,0.772372273 16.99929,0.545099545 C15.5007105,0.227272727 12.7272727,0 9.72656273,0 C6.72762773,0 3.90980136,0.227272727 2.40944591,0.545099545 C1.40980136,0.772372273 0.545099545,1.45419045 0.363991364,2.5 C0.181108182,3.63636364 0,5.22727273 0,7.27272727 C0,9.31818182 0.181108182,10.9090909 0.408380909,12.0454545 C0.591264091,13.0450995 1.45419045,13.7730823 2.45383545,14.000355 C4.04474455,14.3181818 6.77201727,14.5454545 9.77272727,14.5454545 C12.7734377,14.5454545 15.5007105,14.3181818 17.0916195,14.000355 C18.0912641,13.7730823 18.9541905,13.0912641 19.1370741,12.0454545 C19.3181818,10.9090909 19.5454545,9.27201727 19.5916195,7.27272727 C19.49929,5.22727273 19.2720173,3.63636364 19.0447445,2.5 Z M7.27272727,10.4545455 L7.27272727,4.09090909 L12.8178268,7.27272727 L7.27272727,10.4545455 Z" id="Shape"></path>
                </g>
            </g>
        </g>
    </g>
</svg>